# xmcd
#
# Track frame offsets: 
#        150
#        20535
#        39652
#        55140
#        69815
#        86950
#        103117
#        123202
#        136980
#        161777
#        181082
#        191532
#        207982
#        232175
#
# Disc length: 3420 seconds
#
# Revision: 0
# Processed by: cddbd v1.5.2PL0 Copyright (c) Steve Scherf et al.
# Submitted via: ExactAudioCopy v0.95b4
#
DISCID=c20d5a0e
DTITLE=Paul Harrington - Harmonica Soul Serenade
DYEAR=2003
DGENRE=Blues
TTITLE0=Soul Serenade
TTITLE1=Chicken Shack
TTITLE2=Why Work
TTITLE3=Two Harmonicas in a Stripper's Bra
TTITLE4=Big Noise from Winnetka
TTITLE5=JT's Blues
TTITLE6=Canadian Sunset ("Canadian Bacon")
TTITLE7=Mercy Mercy Mercy
TTITLE8=In II Blue
TTITLE9=Swamp Thang
TTITLE10=Hard Times
TTITLE11=Hush Hush (Bright Lights Big City)
TTITLE12=Take Out Some Insurance
TTITLE13=Ain't No Sunshine When She's Gone
EXTD=
EXTT0=
EXTT1=
EXTT2=
EXTT3=
EXTT4=
EXTT5=
EXTT6=
EXTT7=
EXTT8=
EXTT9=
EXTT10=
EXTT11=
EXTT12=
EXTT13=
PLAYORDER=
